<svg width="20" height="20" viewBox="0 0 20 20" fill="none" xmlns="http://www.w3.org/2000/svg">
<path d="M12.152 10.864C12.264 10.7 12.22 10.476 12.056 10.364C11.56 10.028 11.02 9.77203 10.456 9.60803C11.28 9.07603 11.824 8.15202 11.824 7.10402C11.824 5.46002 10.488 4.12402 8.84401 4.12402C7.20001 4.12402 5.86401 5.46002 5.86401 7.10402C5.86401 8.15202 6.40801 9.07603 7.23201 9.60803C6.32801 9.87203 5.50001 10.36 4.81201 11.044C3.73601 12.12 3.14401 13.552 3.14401 15.076C3.14401 15.276 3.30401 15.436 3.50401 15.436C3.70401 15.436 3.86401 15.276 3.86401 15.076C3.86401 12.328 6.10001 10.096 8.84401 10.096C9.85201 10.096 10.824 10.396 11.652 10.96C11.816 11.072 12.04 11.028 12.152 10.864ZM6.58401 7.10402C6.58401 5.85602 7.59601 4.84402 8.84401 4.84402C10.092 4.84402 11.104 5.85602 11.104 7.10402C11.104 8.35203 10.092 9.36402 8.84401 9.36402C7.59601 9.36402 6.58401 8.34802 6.58401 7.10402Z" fill="#686868"/>
<path d="M16.496 11.48H14.44V9.42401C14.44 9.23601 14.288 9.08401 14.1 9.08401C13.912 9.08401 13.76 9.23601 13.76 9.42401V11.48H11.696C11.508 11.48 11.36 11.636 11.36 11.824C11.36 12.012 11.508 12.16 11.696 12.16H13.76V14.224C13.76 14.412 13.908 14.56 14.096 14.56C14.284 14.56 14.44 14.412 14.44 14.224V12.16H16.496C16.684 12.16 16.836 12.008 16.836 11.82C16.836 11.632 16.684 11.48 16.496 11.48Z" fill="#686868"/>
</svg>
